<svg width="500" height="500" viewBox="0 0 500 500" fill="none" xmlns="http://www.w3.org/2000/svg">
<circle cx="250" cy="250" r="250" fill="#214A88"/>
<path d="M254.719 248L295.219 328.625H281.25L252 268.25H251.437L218.062 328.625H204L249.187 248L254.719 248Z" fill="#9FAFCA"/>
<path d="M399.157 156.776L343.757 343.592C343.757 345.128 342.861 345.896 341.069 345.896L283.255 347.432C281.591 347.432 280.759 346.6 280.759 344.936V341.672C280.759 340.008 281.591 339.176 283.255 339.176H307.639L363.039 164.264H338.655C336.991 164.264 336.159 163.432 336.159 161.768V158.504C336.159 156.84 336.991 156.008 338.655 156.008L396.469 154.472C398.261 154.472 399.157 155.24 399.157 156.776Z" fill="#9FAFCA"/>
<path d="M100 156.776L155.4 343.592C155.4 345.128 156.296 345.896 158.088 345.896L215.903 347.432C217.567 347.432 218.399 346.6 218.399 344.936V341.672C218.399 340.008 217.567 339.176 215.903 339.176H191.519L136.118 164.264H160.502C162.166 164.264 162.998 163.432 162.998 161.768V158.504C162.998 156.84 162.166 156.008 160.502 156.008L102.688 154.472C100.896 154.472 100 155.24 100 156.776Z" fill="#9FAFCA"/>
</svg>
